<svg preserveAspectRatio="xMidYMid meet" data-bbox="7.951 15.102 356.533 55.279" width="374.964" height="82.07" viewBox="7.951 15.102 356.533 55.279" xmlns="http://www.w3.org/2000/svg" data-type="color" role="presentation" aria-hidden="true" aria-label=""><defs><style>#comp-m213rm2z svg [data-color="1"] {fill: #000000;}</style></defs>
    <g>
        <defs>
            <clipPath clipPathUnits="userSpaceOnUse" id="8831cfd6-7743-4a3e-ad17-aa16e2c25b6f_comp-m213rm2z">
                <path d="M0 61.553h281.223V0H0Z"></path>
            </clipPath>
        </defs>
        <g clip-path="url(#8831cfd6-7743-4a3e-ad17-aa16e2c25b6f_comp-m213rm2z)" transform="matrix(1.33333 0 0 -1.33333 0 82.07)">
            <path d="M189.613 25.557c2.038 6.591 3.707 12.148 5.48 17.671 1.521 4.742 1.641 4.809 6.646 4.93 4.325.104 8.655.043 12.978.206 3.418.129 5.66-1.175 6.921-4.452 3.7-9.619 7.554-19.179 11.265-28.795 1.167-3.024.634-3.702-2.691-4.087-.495-.057-.997-.042-1.496-.061-7.033-.275-7.029-.273-9.542 6.17-2.233 5.726-4.52 11.431-6.693 17.18-.756 2.001-1.565 3.438-4.136 3.498-2.63.062-3.464-1.38-4.125-3.419a1941 1941 0 0 0-6.217-18.952c-1.591-4.743-1.632-4.731-6.629-4.738q-1.248-.003-2.497.022c-5.112.106-5.061.127-6.778 4.707-2.274 6.066-4.748 12.06-6.903 18.167-.772 2.185-2.069 2.635-4.1 2.729-2.251.103-3.297-.886-3.912-2.921-1.777-5.887-3.636-11.75-5.519-17.604-1.649-5.126-1.683-5.09-6.929-5.123-9.888-.061-7.461.871-5.352 7.417 2.699 8.379 5.347 16.774 8.053 25.15 1.528 4.729 1.559 4.755 6.646 4.893 3.993.108 7.99.042 11.981.185 3.078.11 4.972-1.188 6.049-4.082 1.739-4.672 3.646-9.282 5.494-13.914.487-1.222 1.017-2.428 2.006-4.777" fill="#ffffff" data-color="1"></path>
            <path d="M265.857 33.996c-2.348-.351-4.558.435-6.765 2.41-2.619 2.343-5.955 1.929-8.89.268-3.021-1.71-5.263-4.248-5.256-7.924.006-3.647 2.548-5.594 5.59-6.928 3.611-1.583 6.925-1.518 8.581 1.329 3.052 5.249 7.716 3.348 11.919 3.559 1.858.093 2.584-1.242 2.249-3.05-.463-2.493-1.496-4.745-2.989-6.785-4.965-6.783-14.194-9.804-22.219-7.153-2.194.725-4.338 1.687-6.376 2.782-7.062 3.796-9.993 9.926-9.61 17.757.485 9.895 4.731 16.023 12.881 18.775 8.656 2.923 19.927.281 25.352-5.949.326-.375.647-.762.913-1.18 1.158-1.82 2.669-3.663 1.721-5.956-1.072-2.597-3.578-1.844-5.66-1.952-.332-.018-.665-.003-1.441-.003" fill="#ffffff" data-color="1"></path>
            <path d="M25.964 9.634c-1.586.106-2.753.148-3.911.268-9.781 1.016-16.027 7.887-16.089 17.679-.099 15.62 13.405 25.63 28.303 20.905 4.79-1.519 8.604-4.371 10.704-9.099 1.406-3.164.209-5.189-3.314-5.314-3.922-.138-7.749-.519-11.082 2.897-2.782 2.851-6.358 2.271-9.468-.384-5.552-4.74-5.155-11.619.86-14.878 3.916-2.121 7.362-1.446 10.139 2.083 1.004 1.275 1.536 3.057 3.62 2.988 2.978-.099 6.044.574 8.907-.405 1.478-.505 1.169-2.101.819-3.493-1.682-6.689-7.238-11.729-14.428-12.857-1.802-.283-3.648-.288-5.06-.39" fill="#ffffff" data-color="1"></path>
            <path d="M80.853 29.352c0-4.831.044-9.663-.014-14.494-.046-3.891-.571-4.379-4.262-4.328-.831.011-1.668.235-2.489.175-2.443-.179-3.21 1.087-3.21 3.313 0 2.496-.167 4.993-.262 7.489-.077 2.012-1.149 3.026-3.135 3.103-.832.031-1.665.038-2.498.041-5.405.021-5.579-.148-5.797-5.526-.041-.998-.022-2.009-.179-2.99-.276-1.723.785-4.14-1.232-4.986-2.077-.87-4.532-.953-6.865-.487-1.694.337-1.897 1.621-1.892 3.038.011 3.499.011 6.997.017 10.496.011 6.497-.018 12.995.051 19.492.048 4.491.86 5.152 5.391 4.755.826-.072 1.654-.249 2.475-.219 1.749.062 2.39-.944 2.455-2.455.113-2.663.104-5.33.228-7.992.166-3.556.323-3.684 3.68-3.87 6.567-.364 6.568-.364 6.861 6.202.037.832.025 1.667.096 2.496.154 1.784-.645 4.272 1.079 5.107 2.145 1.039 4.795 1.23 7.294.669 1.945-.436 1.96-2.001 1.961-3.539.004-5.163.002-10.327.002-15.49z" fill="#ffffff" data-color="1"></path>
            <path d="M131.901 48.427c3.492 0 6.985-.043 10.476.014 2.461.041 3.747-1.011 3.715-3.535-.006-.497.087-.994.109-1.492.183-4.135-.186-4.662-4.206-5.06-2.477-.245-4.98-.234-7.473-.317-1.496-.05-2.993-.069-4.489-.081-1.464-.012-2.769-.336-2.652-2.138.092-1.402 1.177-1.863 2.469-1.879 1.663-.02 3.326-.075 4.989-.056 2.452.026 3.07-1.506 3.155-3.564.088-2.126-.07-4.093-2.757-4.486-1.798-.263-3.662.078-5.415-.666-1.162-.492-2.083-1.139-1.934-2.537.166-1.571 1.421-1.627 2.601-1.65 3.825-.077 7.653-.057 11.475-.204 3.834-.147 4.666-1.427 3.509-5.075-1.521-4.796-1.885-5.059-7.066-5.093-5.489-.036-10.978-.116-16.467-.091-4.324.02-4.891.512-4.844 4.909.106 9.971.414 19.939.52 29.91.026 2.404 1.096 3.276 3.307 3.265 3.66-.018 7.319-.005 10.978-.005z" fill="#ffffff" data-color="1"></path>
            <path d="M85.07 29.33c0 4.988-.056 9.977.019 14.964.053 3.588.569 4.236 3.937 4.272 6.982.074 13.968.033 20.949-.13 3.314-.078 3.758-.818 3.932-4.926.176-4.125-.105-4.75-3.625-5.065-4.131-.37-8.299-.336-12.45-.489-1.327-.049-2.835.058-2.813-1.909.02-1.801 1.338-2.073 2.759-2.11 1.329-.034 2.662.006 3.989-.061 3.038-.153 3.891-.971 4.034-3.766.15-2.953-.835-4.066-4.045-4.357-1.485-.134-2.979-.039-4.42-.589-1.266-.483-1.927-1.375-1.741-2.658.168-1.155 1.152-1.516 2.227-1.535 3.491-.064 6.984-.07 10.473-.182 5.215-.168 7.425-4.306 4.839-8.867-.599-1.058-1.494-1.252-2.489-1.261-7.482-.071-14.964-.104-22.445-.162-2.291-.019-3.268 1.084-3.241 3.369.061 5.154.019 10.308.019 15.462z" fill="#ffffff" data-color="1"></path>
        </g>
    </g>
</svg>